<?xml version="1.0" standalone="no"?>
<!DOCTYPE svg PUBLIC "-//W3C//DTD SVG 20010904//EN"
 "http://www.w3.org/TR/2001/REC-SVG-20010904/DTD/svg10.dtd">
<svg version="1.0" xmlns="http://www.w3.org/2000/svg"
 width="16.000000pt" height="16.000000pt" viewBox="0 0 16.000000 16.000000"
 preserveAspectRatio="xMidYMid meet">
<metadata>
Created by potrace 1.11, written by Peter Selinger 2001-2013
</metadata>
<g transform="translate(0.000000,16.000000) scale(0.002286,-0.002286)"
fill="#000000" stroke="none">
<path d="M3278 6995 c-2 -1 -41 -5 -88 -9 -47 -4 -96 -8 -110 -10 -14 -2 -46
-7 -71 -10 -25 -4 -57 -9 -70 -11 -13 -2 -42 -6 -64 -10 -22 -3 -100 -19 -174
-36 -504 -116 -985 -349 -1397 -681 -131 -105 -352 -317 -460 -442 -240 -277
-460 -643 -594 -986 -29 -74 -56 -144 -61 -155 -31 -80 -112 -383 -124 -465
-3 -25 -10 -63 -15 -85 -8 -35 -13 -75 -26 -180 -13 -103 -18 -225 -18 -405 0
-249 8 -371 40 -560 7 -47 16 -103 20 -124 3 -22 10 -51 16 -65 5 -14 9 -27 8
-29 -1 -1 1 -15 4 -30 4 -15 8 -36 10 -47 6 -29 66 -234 76 -259 5 -11 28 -73
51 -136 81 -223 220 -489 368 -709 161 -238 390 -498 581 -661 36 -30 67 -58
70 -61 18 -23 197 -156 315 -233 250 -165 450 -267 720 -366 177 -65 414 -131
559 -155 16 -2 52 -9 80 -14 28 -6 78 -13 110 -16 32 -3 62 -7 65 -9 12 -7
228 -18 371 -19 193 -2 410 13 565 39 479 78 911 240 1313 491 114 71 335 232
417 304 156 136 321 306 435 448 19 24 40 48 45 55 6 6 40 51 75 101 205 282
379 624 491 960 33 97 94 327 103 387 3 21 10 57 15 80 11 51 17 91 27 173 3
33 8 69 10 79 23 124 22 582 -2 756 -3 19 -7 55 -10 80 -4 38 -15 111 -19 130
-2 7 -16 89 -22 120 -16 96 -118 445 -153 525 -5 11 -25 61 -45 110 -72 178
-186 391 -312 584 -188 285 -463 584 -745 808 -378 300 -828 522 -1307 644
-84 22 -170 42 -190 45 -46 7 -80 13 -111 19 -43 8 -108 17 -240 31 -49 5
-527 13 -532 9z m306 -715 c316 -108 409 -507 172 -741 -236 -233 -618 -147
-739 166 -30 78 -31 213 -2 294 86 238 336 361 569 281z m1897 -988 c128 -51
171 -228 85 -355 -35 -52 -97 -79 -211 -92 -27 -3 -66 -8 -85 -10 -39 -5 -425
-53 -480 -60 -95 -11 -146 -18 -160 -20 -8 -2 -42 -6 -75 -9 -33 -4 -71 -9
-85 -11 -14 -2 -68 -9 -120 -15 -52 -6 -108 -13 -125 -15 -16 -2 -55 -7 -85
-11 -30 -4 -62 -8 -70 -9 -13 -2 -15 -85 -17 -671 l-1 -669 28 -95 c16 -52 52
-171 80 -265 29 -93 54 -179 57 -190 3 -11 55 -184 115 -385 61 -201 114 -378
118 -395 4 -16 65 -219 135 -450 110 -365 126 -427 123 -475 -16 -215 -272
-312 -430 -163 -43 41 -27 -3 -392 1073 -41 118 -106 312 -147 430 -40 118
-101 296 -134 395 l-61 180 -101 3 -100 3 -10 -28 c-16 -43 -116 -370 -244
-793 -110 -362 -151 -496 -156 -510 -3 -8 -7 -20 -8 -26 -2 -7 -19 -63 -38
-125 -20 -63 -64 -206 -98 -319 -34 -113 -70 -221 -79 -240 -42 -83 -119 -130
-215 -129 -104 0 -182 42 -236 127 -45 71 -48 123 -14 262 2 8 13 51 25 95 12
44 35 132 51 195 17 63 36 138 44 165 8 28 37 136 64 240 27 105 86 330 131
500 45 171 83 317 85 325 2 8 11 42 20 75 9 33 41 155 72 270 l56 210 0 683
c0 375 -2 684 -4 686 -2 2 -29 7 -59 10 -30 4 -66 9 -80 11 -14 2 -45 7 -70
10 -25 4 -56 8 -70 10 -14 2 -50 7 -80 10 -30 4 -62 8 -70 10 -8 1 -42 6 -75
10 -32 4 -67 8 -76 10 -14 3 -73 11 -154 21 -16 2 -46 6 -65 9 -19 3 -48 7
-65 10 -463 60 -440 55 -494 101 -80 67 -102 204 -49 296 42 71 124 116 208
113 42 -1 232 -16 275 -21 17 -2 68 -6 115 -9 47 -3 99 -8 115 -10 17 -2 73
-7 125 -10 52 -3 109 -8 125 -10 17 -2 66 -7 110 -10 44 -3 98 -7 120 -10 22
-2 81 -7 130 -10 50 -4 104 -9 120 -11 209 -27 983 -27 1245 0 34 4 164 15
243 21 21 2 73 6 115 9 42 4 103 9 135 11 31 3 84 7 117 10 33 3 87 7 120 10
33 3 86 7 118 10 206 17 235 20 382 31 47 3 86 7 88 9 4 4 61 -10 93 -23z"/>
</g>
</svg>
